<?xml version="1.0" encoding="UTF-8" standalone="no"?>
<svg
   version="1.1"
   width="93.94339"
   height="93.688004"
   viewBox="0 0 93.94339 93.688004"
   id="svg111"
   sodipodi:docname="PDF1_SVG1.svg"
   inkscape:version="1.4.2 (ebf0e940d0, 2025-05-08)"
   xml:space="preserve"
   xmlns:inkscape="http://www.inkscape.org/namespaces/inkscape"
   xmlns:sodipodi="http://sodipodi.sourceforge.net/DTD/sodipodi-0.dtd"
   xmlns="http://www.w3.org/2000/svg"
   xmlns:svg="http://www.w3.org/2000/svg"><sodipodi:namedview
     id="namedview111"
     pagecolor="#ffffff"
     bordercolor="#000000"
     borderopacity="0.25"
     inkscape:showpageshadow="2"
     inkscape:pageopacity="0.0"
     inkscape:pagecheckerboard="0"
     inkscape:deskcolor="#d1d1d1"
     inkscape:zoom="4.4017569"
     inkscape:cx="57.704232"
     inkscape:cy="59.521688"
     inkscape:window-width="1920"
     inkscape:window-height="1043"
     inkscape:window-x="0"
     inkscape:window-y="0"
     inkscape:window-maximized="1"
     inkscape:current-layer="g96" /><defs
     id="defs4"><clipPath
       id="clip_0"><path
         transform="matrix(0.1,0,0,-0.1,0,792)"
         d="m 2589.74,5907.19 h 940.508 v 940.5079 H 2589.74 Z"
         id="path1" /></clipPath><clipPath
       id="clip_1"><path
         transform="matrix(0.1,0,0,-0.1,0,792)"
         d="m 2589.74,5907.19 h 940.51 v 940.51 h -940.51 z"
         id="path2" /></clipPath><clipPath
       id="clip_2"><path
         transform="matrix(0.1,0,0,-0.1,0,792)"
         d="m 2589.74,5907.19 h 940.508 v 940.5079 H 2589.74 Z"
         id="path3" /></clipPath><clipPath
       id="clip_3"><path
         transform="matrix(0.1,0,0,-0.1,0,792)"
         d="m 2589.74,5907.19 h 940.508 v 940.5079 H 2589.74 Z"
         clip-rule="evenodd"
         id="path4" /></clipPath></defs><g
     clip-path="url(#clip_1)"
     id="g96"
     inkscape:label="logo"
     style="display:inline"
     transform="translate(-259.07,-107.48)"><g
       clip-path="url(#clip_2)"
       id="g43"
       style="display:inline"><path
         transform="matrix(0.1,0,0,-0.1,0,792)"
         d="m 2604.15,6264.12 -1.27,6.15 25.25,14.23 7.41,4.09 -8.43,0.9 -28.82,3.1 -1.2,5.84 42.91,-5.37 1.52,-7.37"
         fill="#032b91"
         fill-rule="evenodd"
         id="path5" /><path
         transform="matrix(0.1,0,0,-0.1,0,792)"
         d="m 2595.98,6306.41 -3.01,24.3 4.67,0.58 1.15,-9.35 31.25,3.86 -1.16,9.38 4.73,0.58 3,-24.33 -4.72,-0.57 -1.16,9.34 -31.25,-3.86 1.16,-9.35"
         fill="#032b91"
         fill-rule="evenodd"
         id="path6" /><path
         transform="matrix(0.1,0,0,-0.1,0,792)"
         d="m 2591.82,6344.93 -0.98,23.25 4.7,0.21 0.75,-17.71 12.67,0.55 -0.72,16.98 4.7,0.21 0.72,-16.99 14.08,0.59 -0.75,17.7 4.76,0.21 0.99,-23.29"
         fill="#032b91"
         fill-rule="evenodd"
         id="path7" /><path
         transform="matrix(0.1,0,0,-0.1,0,792)"
         d="m 2590.7,6379.16 1.16,29.87 4.75,-0.21 -0.47,-12.1 36.16,-1.42 -0.22,-5.64 -36.15,1.43 -0.48,-12.14"
         fill="#032b91"
         fill-rule="evenodd"
         id="path8" /><path
         transform="matrix(0.1,0,0,-0.1,0,792)"
         d="m 2592.61,6418 0.85,7.11 25.38,8.39 9.79,2.96 -21.77,2.61 -11.54,1.39 0.62,5.17 40.65,-4.9 -0.87,-7.2 -26.77,-8.8 -8.57,-2.44 20.5,-2.47 13,-1.56 -0.62,-5.17"
         fill="#032b91"
         fill-rule="evenodd"
         id="path9" /><path
         transform="matrix(0.1,0,0,-0.1,0,792)"
         d="m 2605.32,6467.98 20.08,-11.14 2.77,13.55 z m -5.75,-2.5 1.53,7.5 42.8,4.96 -1.22,-5.95 -9.31,-1.02 -3.41,-16.72 8.18,-4.59 -1.16,-5.68"
         fill="#032b91"
         fill-rule="evenodd"
         id="path10" /><path
         transform="matrix(0.1,0,0,-0.1,0,792)"
         d="m 2605.44,6492.34 1.84,6.32 16.34,1.02 5.49,0.26 -4.52,3.11 -13.19,9.87 1.89,6.53 39.88,-9.49 -1.52,-5.26 -24.74,6.33 -9.52,2.38 4.94,-3.39 13.97,-10.37 -1.07,-3.69 -16.65,-1.19 -6.61,-0.05 9.8,-2.99 23.91,-7.67 -1.47,-5.05"
         fill="#032b91"
         fill-rule="evenodd"
         id="path11" /><path
         transform="matrix(0.1,0,0,-0.1,0,792)"
         d="m 2630.19,6563.98 3.07,6.47 26.72,-0.09 10.23,-0.32 -19.82,9.41 -10.5,4.99 2.23,4.68 37,-17.54 -3.12,-6.56 -28.18,0.15 -8.89,0.4 18.65,-8.85 11.83,-5.6 -2.23,-4.71"
         fill="#032b91"
         fill-rule="evenodd"
         id="path12" /><path
         transform="matrix(0.1,0,0,-0.1,0,792)"
         d="m 2658.08,6607.34 15.52,-16.92 6.91,11.99 z m -6.25,-0.55 3.82,6.62 42.17,-8.82 -3.03,-5.29 -9.16,2.01 -8.51,-14.78 6.29,-6.94 -2.89,-5.02"
         fill="#032b91"
         fill-rule="evenodd"
         id="path13" /><path
         transform="matrix(0.1,0,0,-0.1,0,792)"
         d="m 2665.39,6629.67 16.95,24.62 3.92,-2.7 -6.88,-9.99 29.81,-20.49 -3.2,-4.65 -29.8,20.49 -6.88,-9.98"
         fill="#032b91"
         fill-rule="evenodd"
         id="path14" /><path
         transform="matrix(0.1,0,0,-0.1,0,792)"
         d="m 2688.8,6662.76 15.47,18.99 3.64,-2.96 -5.95,-7.32 24.42,-19.88 5.94,7.31 3.7,-2.99 -15.47,-19.02 -3.69,3.02 5.96,7.32 -24.43,19.86 -5.94,-7.32"
         fill="#032b91"
         fill-rule="evenodd"
         id="path15" /><path
         transform="matrix(0.1,0,0,-0.1,0,792)"
         d="m 2724.68,6697.59 c -1.22,-1.25 -1.95,-2.64 -2.22,-4.15 -0.26,-1.48 -0.15,-3.02 0.34,-4.61 0.49,-1.6 1.29,-3.22 2.43,-4.85 1.14,-1.62 2.5,-3.22 4.08,-4.73 1.75,-1.69 3.48,-3.08 5.18,-4.18 1.7,-1.11 3.35,-1.86 4.93,-2.27 1.6,-0.4 3.12,-0.43 4.57,-0.05 1.46,0.37 2.8,1.21 4.04,2.49 1.22,1.28 1.96,2.67 2.23,4.15 0.27,1.51 0.17,3.08 -0.31,4.68 -0.49,1.59 -1.29,3.22 -2.41,4.84 -1.13,1.63 -2.5,3.2 -4.09,4.73 -1.74,1.66 -3.45,3.06 -5.15,4.18 -1.69,1.11 -3.34,1.86 -4.95,2.27 -1.6,0.41 -3.13,0.44 -4.6,0.06 -1.45,-0.38 -2.82,-1.22 -4.07,-2.56 z m -3.32,3.63 c 1.82,1.89 3.75,3.23 5.8,3.95 2.05,0.76 4.16,0.99 6.34,0.67 2.19,-0.29 4.43,-1.11 6.73,-2.41 2.29,-1.31 4.6,-3.08 6.93,-5.31 2.65,-2.56 4.64,-5.05 5.98,-7.52 1.33,-2.47 2.12,-4.85 2.36,-7.12 0.24,-2.29 -0.02,-4.41 -0.77,-6.41 -0.75,-2.03 -1.89,-3.83 -3.41,-5.4 -1.82,-1.92 -3.74,-3.22 -5.78,-3.97 -2.04,-0.76 -4.15,-0.99 -6.33,-0.67 -2.19,0.32 -4.43,1.13 -6.73,2.47 -2.29,1.33 -4.61,3.1 -6.95,5.34 -2.62,2.52 -4.61,5.02 -5.94,7.48 -1.34,2.47 -2.14,4.82 -2.38,7.09 -0.24,2.29 0.01,4.41 0.76,6.41 0.75,2 1.88,3.81 3.39,5.4"
         fill="#032b91"
         fill-rule="evenodd"
         id="path16" /><path
         transform="matrix(0.1,0,0,-0.1,0,792)"
         d="m 2738.39,6717.59 5.36,4.77 24.57,-10.51 9.29,-4.27 -14.57,16.37 -7.72,8.71 3.89,3.45 27.2,-30.62 -5.44,-4.82 -25.88,11.15 -8.03,3.86 13.72,-15.45 8.7,-9.78 -3.89,-3.45"
         fill="#032b91"
         fill-rule="evenodd"
         id="path17" /><path
         transform="matrix(0.1,0,0,-0.1,0,792)"
         d="m 2781.05,6746.62 7.65,-21.65 11.05,8.33 z m -5.97,1.95 6.11,4.61 35.34,-24.64 -4.85,-3.66 -7.65,5.4 -13.62,-10.25 3.07,-8.85 -4.62,-3.48"
         fill="#032b91"
         fill-rule="evenodd"
         id="path18" /><path
         transform="matrix(0.1,0,0,-0.1,0,792)"
         d="m 2800.45,6766.82 4.79,3.02 19.35,-30.56 15.12,9.58 2.54,-4.04 -19.9,-12.6"
         fill="#032b91"
         fill-rule="evenodd"
         id="path19" /><path
         transform="matrix(0.1,0,0,-0.1,0,792)"
         d="m 2863.05,6801.92 5.13,2.18 10.61,-24.94 c 0.62,-1.48 1.32,-2.73 2.07,-3.71 0.76,-0.99 1.6,-1.74 2.56,-2.21 0.96,-0.49 2,-0.7 3.19,-0.67 1.16,0.06 2.5,0.38 3.95,1.02 2.73,1.16 4.41,2.79 5.02,4.93 0.64,2.12 0.35,4.62 -0.87,7.49 l -10.6,24.88 5.14,2.18 10.45,-24.56 c 0.87,-2.09 1.39,-4.09 1.51,-6.01 0.15,-1.95 -0.12,-3.74 -0.75,-5.4 -0.61,-1.65 -1.63,-3.16 -3,-4.5 -1.36,-1.36 -3.13,-2.47 -5.25,-3.39 -2.35,-0.99 -4.47,-1.54 -6.35,-1.6 -1.89,-0.09 -3.61,0.2 -5.11,0.9 -1.51,0.7 -2.83,1.71 -3.98,3.1 -1.14,1.37 -2.12,3.02 -2.95,4.97"
         fill="#032b91"
         fill-rule="evenodd"
         id="path20" /><path
         transform="matrix(0.1,0,0,-0.1,0,792)"
         d="m 2898.28,6816.46 6.82,2.27 18.43,-19.34 6.85,-7.57 -6.93,20.78 -3.69,11.03 4.94,1.66 12.97,-38.84 -6.91,-2.32 -19.39,20.46 -5.86,6.68 6.53,-19.57 4.12,-12.42 -4.93,-1.65"
         fill="#032b91"
         fill-rule="evenodd"
         id="path21" /><path
         transform="matrix(0.1,0,0,-0.1,0,792)"
         d="m 2935.98,6828.48 23.78,5.86 1.13,-4.55 -9.14,-2.27 7.55,-30.56 9.14,2.26 1.13,-4.61 -23.77,-5.9 -1.14,4.65 9.15,2.26 -7.55,30.57 -9.14,-2.27"
         fill="#032b91"
         fill-rule="evenodd"
         id="path22" /><path
         transform="matrix(0.1,0,0,-0.1,0,792)"
         d="m 2967.8,6836.2 6.21,1.02 13.18,-25.81 3.77,-7.57 1.22,8.39 4.3,28.68 5.86,0.95 -7.11,-42.64 -7.4,-1.22"
         fill="#032b91"
         fill-rule="evenodd"
         id="path23" /><path
         transform="matrix(0.1,0,0,-0.1,0,792)"
         d="m 3011.31,6842.73 23.2,1.89 0.37,-4.67 -17.61,-1.45 1.01,-12.66 16.95,1.39 0.41,-4.67 -16.98,-1.4 1.16,-14.04 17.65,1.45 0.37,-4.76 -23.19,-1.89"
         fill="#032b91"
         fill-rule="evenodd"
         id="path24" /><path
         transform="matrix(0.1,0,0,-0.1,0,792)"
         d="m 3053.7,6840.5 v -13.53 h 4.5 c 1.33,0 2.49,0.15 3.57,0.47 1.04,0.29 1.94,0.75 2.69,1.33 0.73,0.61 1.31,1.34 1.72,2.21 0.4,0.87 0.61,1.86 0.61,2.99 0,2.2 -0.7,3.83 -2.06,4.9 -1.37,1.11 -3.31,1.63 -5.78,1.63 z m -5.61,4.7 h 10.98 c 2.38,0 4.44,-0.26 6.15,-0.78 1.71,-0.53 3.1,-1.25 4.21,-2.18 1.1,-0.93 1.89,-2.06 2.41,-3.4 0.52,-1.33 0.75,-2.78 0.78,-4.41 0,-1.27 -0.2,-2.47 -0.58,-3.6 -0.38,-1.16 -0.93,-2.17 -1.65,-3.1 -0.76,-0.93 -1.69,-1.75 -2.76,-2.41 -1.11,-0.7 -2.38,-1.19 -3.77,-1.54 1.13,-0.38 2.11,-1.08 2.93,-2.09 0.78,-0.99 1.62,-2.3 2.44,-3.95 l 6.5,-13.47 h -6.3 l -6.13,13.09 c -0.43,0.99 -0.92,1.83 -1.39,2.5 -0.49,0.64 -1.02,1.16 -1.57,1.57 -0.55,0.37 -1.16,0.64 -1.8,0.81 -0.66,0.17 -1.39,0.26 -2.2,0.26 h -2.64 v -18.23 l -5.58,-0.03"
         fill="#032b91"
         fill-rule="evenodd"
         id="path25" /><path
         transform="matrix(0.1,0,0,-0.1,0,792)"
         d="m 3099.85,6844.13 c 0.7,-0.06 1.42,-0.15 2.24,-0.26 0.78,-0.12 1.59,-0.3 2.4,-0.47 0.81,-0.17 1.63,-0.38 2.41,-0.58 0.79,-0.2 1.51,-0.43 2.18,-0.67 l -0.38,-4.99 c -1.56,0.61 -3.16,1.07 -4.73,1.45 -1.59,0.35 -3.13,0.61 -4.61,0.73 -3.2,0.26 -5.58,-0.09 -7.17,-1.02 -1.6,-0.96 -2.44,-2.32 -2.59,-4.09 -0.08,-1.1 0.15,-2.09 0.7,-2.93 0.52,-0.85 1.28,-1.6 2.24,-2.33 0.95,-0.69 2.03,-1.36 3.27,-1.97 1.25,-0.61 2.5,-1.25 3.81,-1.89 1.27,-0.63 2.52,-1.36 3.77,-2.09 1.22,-0.75 2.29,-1.62 3.22,-2.58 0.93,-0.96 1.66,-2.06 2.18,-3.31 0.52,-1.22 0.7,-2.67 0.58,-4.27 -0.14,-1.94 -0.7,-3.63 -1.6,-5.02 -0.89,-1.39 -2.11,-2.5 -3.59,-3.36 -1.52,-0.85 -3.26,-1.43 -5.29,-1.75 -2.03,-0.32 -4.24,-0.37 -6.65,-0.2 -1.07,0.09 -2.14,0.23 -3.22,0.41 -1.04,0.14 -2.09,0.35 -3.05,0.55 -0.98,0.2 -1.91,0.43 -2.76,0.67 -0.87,0.23 -1.65,0.46 -2.35,0.72 l 0.44,5.37 c 1.51,-0.72 3.25,-1.3 5.17,-1.8 1.91,-0.49 4.12,-0.84 6.58,-1.04 1.81,-0.15 3.34,-0.12 4.62,0.05 1.28,0.18 2.35,0.53 3.19,0.99 0.85,0.5 1.48,1.13 1.92,1.89 0.41,0.75 0.67,1.65 0.76,2.67 0.08,1.1 -0.15,2.06 -0.7,2.9 -0.55,0.81 -1.31,1.6 -2.23,2.29 -0.97,0.7 -2.07,1.34 -3.32,1.95 -1.22,0.61 -2.49,1.25 -3.77,1.89 -1.31,0.66 -2.56,1.36 -3.77,2.09 -1.25,0.75 -2.32,1.59 -3.25,2.52 -0.93,0.96 -1.66,2.03 -2.18,3.25 -0.52,1.22 -0.7,2.62 -0.58,4.21 0.12,1.39 0.52,2.76 1.22,4.07 0.67,1.3 1.68,2.43 2.99,3.39 1.3,0.93 2.96,1.66 4.93,2.15 1.98,0.49 4.3,0.64 6.97,0.41"
         fill="#032b91"
         fill-rule="evenodd"
         id="path26" /><path
         transform="matrix(0.1,0,0,-0.1,0,792)"
         d="m 3123.68,6841.11 24.18,-3.95 -0.75,-4.64 -9.32,1.53 -5.05,-31.09 9.29,-1.5 -0.76,-4.71 -24.18,3.95 0.76,4.7 9.31,-1.54 5.09,31.09 -9.32,1.51"
         fill="#032b91"
         fill-rule="evenodd"
         id="path27" /><path
         transform="matrix(0.1,0,0,-0.1,0,792)"
         d="m 3158.31,6835.13 29.03,-7.17 -1.16,-4.62 -11.76,2.91 -8.71,-35.13 -5.45,1.36 8.68,35.13 -11.76,2.9"
         fill="#032b91"
         fill-rule="evenodd"
         id="path28" /><path
         transform="matrix(0.1,0,0,-0.1,0,792)"
         d="m 3192.42,6826.59 6.38,-2.14 2.97,-16.78 0.93,-6.65 4.35,4.27 12.74,12.13 6.07,-2.03 -22.41,-20.26 -4.65,-13.85 -5.34,1.77 4.68,13.99"
         fill="#032b91"
         fill-rule="evenodd"
         id="path29" /><path
         transform="matrix(0.1,0,0,-0.1,0,792)"
         d="m 3231.78,6779.42 c 0.67,-0.29 1.25,-0.69 1.77,-1.24 0.5,-0.55 0.87,-1.22 1.11,-2.01 0.2,-0.75 0.29,-1.65 0.17,-2.64 -0.09,-0.96 -0.38,-2.06 -0.87,-3.22 -0.7,-1.6 -1.63,-2.99 -2.85,-4.21 -1.22,-1.22 -2.64,-2.15 -4.29,-2.79 -1.63,-0.63 -3.48,-0.93 -5.49,-0.84 -2.03,0.06 -4.21,0.58 -6.5,1.57 l 1.68,3.95 c 0.96,-0.47 1.95,-0.79 2.96,-0.96 1.02,-0.17 1.95,-0.21 2.85,-0.12 0.87,0.12 1.65,0.41 2.32,0.84 0.7,0.44 1.22,1.05 1.54,1.83 0.35,0.81 0.49,1.51 0.43,2.15 -0.08,0.61 -0.2,1.19 -0.34,1.77 -0.18,0.58 -0.29,1.16 -0.38,1.74 -0.06,0.61 0.06,1.31 0.41,2.12 0.17,0.41 0.43,0.78 0.78,1.16 0.35,0.38 0.75,0.7 1.22,0.93 0.46,0.21 1.01,0.35 1.59,0.38 0.59,0 1.22,-0.12 1.89,-0.41"
         fill="#032b91"
         fill-rule="evenodd"
         id="path30" /><path
         transform="matrix(0.1,0,0,-0.1,0,792)"
         d="m 3299.39,6779.98 4.73,-3 -9.26,-14.62 14.52,-9.21 9.25,14.66 4.73,-2.99 -21.88,-34.6 -4.73,2.99 10.07,15.88 -14.54,9.2 -10.05,-15.91 -4.73,3"
         fill="#032b91"
         fill-rule="evenodd"
         id="path31" /><path
         transform="matrix(0.1,0,0,-0.1,0,792)"
         d="m 3339.88,6747.49 c -1.39,1.05 -2.87,1.63 -4.38,1.69 -1.51,0.08 -3.05,-0.21 -4.56,-0.88 -1.51,-0.66 -3.02,-1.68 -4.53,-2.98 -1.48,-1.34 -2.87,-2.88 -4.21,-4.62 -1.45,-1.95 -2.61,-3.83 -3.51,-5.63 -0.9,-1.83 -1.45,-3.54 -1.68,-5.17 -0.21,-1.65 -0.06,-3.16 0.49,-4.56 0.55,-1.39 1.54,-2.64 2.96,-3.71 1.42,-1.05 2.88,-1.63 4.42,-1.71 1.5,-0.09 3.04,0.2 4.58,0.87 1.51,0.66 3.02,1.65 4.5,2.96 1.51,1.3 2.9,2.87 4.24,4.64 1.45,1.92 2.61,3.78 3.51,5.61 0.9,1.79 1.48,3.54 1.68,5.16 0.21,1.66 0.06,3.16 -0.49,4.59 -0.55,1.39 -1.57,2.64 -3.02,3.74 z m 3.19,3.72 c 2.09,-1.6 3.66,-3.34 4.62,-5.28 0.99,-1.95 1.48,-4.01 1.42,-6.22 -0.03,-2.2 -0.55,-4.53 -1.59,-6.96 -1.02,-2.44 -2.53,-4.94 -4.45,-7.52 -2.2,-2.93 -4.46,-5.23 -6.76,-6.85 -2.29,-1.6 -4.56,-2.67 -6.79,-3.17 -2.21,-0.52 -4.36,-0.52 -6.45,-0.03 -2.09,0.53 -4,1.43 -5.77,2.76 -2.09,1.57 -3.66,3.34 -4.65,5.26 -0.98,1.94 -1.45,4 -1.39,6.21 0.06,2.2 0.58,4.53 1.65,6.97 1.05,2.43 2.53,4.96 4.48,7.54 2.17,2.9 4.41,5.17 6.7,6.79 2.29,1.63 4.56,2.7 6.79,3.2 2.21,0.52 4.36,0.52 6.45,0.03 2.06,-0.49 3.97,-1.42 5.74,-2.73"
         fill="#032b91"
         fill-rule="evenodd"
         id="path32" /><path
         transform="matrix(0.1,0,0,-0.1,0,792)"
         d="m 3401.89,6698.67 c 1.3,-1.37 2.43,-2.76 3.31,-4.15 0.89,-1.39 1.62,-2.88 2.2,-4.41 l -3.95,-3.81 c -0.46,1.63 -1.07,3.16 -1.86,4.62 -0.78,1.42 -1.82,2.81 -3.13,4.18 -1.33,1.39 -2.82,2.38 -4.41,3.02 -1.6,0.61 -3.25,0.84 -5,0.67 -1.74,-0.15 -3.51,-0.7 -5.34,-1.66 -1.82,-0.96 -3.66,-2.29 -5.48,-4.06 -3.84,-3.66 -5.95,-7.2 -6.42,-10.63 -0.43,-3.42 0.76,-6.62 3.66,-9.64 1.22,-1.25 2.53,-2.32 3.92,-3.19 1.42,-0.87 2.9,-1.59 4.44,-2.18 l -3.78,-3.63 c -3.25,1.43 -6.12,3.43 -8.62,6.01 -4,4.18 -5.83,8.57 -5.51,13.21 0.35,4.62 2.96,9.29 7.84,13.99 2.38,2.27 4.79,4.01 7.31,5.23 2.5,1.22 4.97,1.91 7.41,2.03 2.43,0.14 4.79,-0.26 7.08,-1.19 2.26,-0.93 4.38,-2.41 6.33,-4.41"
         fill="#032b91"
         fill-rule="evenodd"
         id="path33" /><path
         transform="matrix(0.1,0,0,-0.1,0,792)"
         d="m 3415.21,6683.54 3.54,-4.32 -13.44,-10.97 10.89,-13.3 13.44,10.94 3.51,-4.32 -31.7,-25.89 -3.54,4.32 14.57,11.88 -10.89,13.32 -14.57,-11.88 -3.51,4.3"
         fill="#032b91"
         fill-rule="evenodd"
         id="path34" /><path
         transform="matrix(0.1,0,0,-0.1,0,792)"
         d="m 3439.94,6652.43 13.94,-20.18 -3.9,-2.67 -5.34,7.75 -25.92,-17.88 5.37,-7.75 -3.92,-2.7 -13.93,20.18 3.92,2.7 5.37,-7.79 25.92,17.89 -5.37,7.77"
         fill="#032b91"
         fill-rule="evenodd"
         id="path35" /><path
         transform="matrix(0.1,0,0,-0.1,0,792)"
         d="m 3478.64,6589.58 2.81,-5.98 -11.55,-11.58 -3.95,-3.83 5.43,0.67 16.43,1.33 2.9,-6.12 -36.17,-19.31 -2.35,4.94 22.73,11.64 8.74,4.5 -5.98,-0.7 -17.3,-1.51 -1.66,3.48 11.7,11.93 4.91,4.42 -9.32,-4.27 -22.99,-10.07 -2.27,4.76"
         fill="#032b91"
         fill-rule="evenodd"
         id="path36" /><path
         transform="matrix(0.1,0,0,-0.1,0,792)"
         d="m 3495.13,6553.47 8.64,-22.93 -4.41,-1.66 -3.31,8.83 -29.46,-11.12 3.31,-8.82 -4.44,-1.69 -8.66,22.94 4.48,1.68 3.31,-8.83 29.46,11.12 -3.34,8.8"
         fill="#032b91"
         fill-rule="evenodd"
         id="path37" /><path
         transform="matrix(0.1,0,0,-0.1,0,792)"
         d="m 3507.52,6519.48 1.97,-6.88 -20.08,-17.65 -7.87,-6.53 21.07,6.06 11.18,3.23 1.45,-5 -39.36,-11.35 -2,7 21.21,18.55 6.94,5.57 -19.82,-5.72 -12.6,-3.62 -1.45,4.99"
         fill="#032b91"
         fill-rule="evenodd"
         id="path38" /><path
         transform="matrix(0.1,0,0,-0.1,0,792)"
         d="m 3517.62,6483.08 1.1,-5.46 -16.98,-3.46 3.43,-16.86 16.98,3.45 1.1,-5.45 -40.11,-8.16 -1.11,5.46 18.41,3.74 -3.43,16.87 -18.4,-3.75 -1.14,5.46"
         fill="#032b91"
         fill-rule="evenodd"
         id="path39" /><path
         transform="matrix(0.1,0,0,-0.1,0,792)"
         d="m 3530.1,6390.65 c 0.09,-1.92 0,-3.69 -0.26,-5.31 -0.26,-1.66 -0.7,-3.22 -1.3,-4.76 l -5.49,-0.2 c 0.75,1.51 1.33,3.04 1.68,4.67 0.38,1.59 0.52,3.34 0.44,5.22 -0.06,1.92 -0.49,3.63 -1.28,5.17 -0.78,1.51 -1.89,2.79 -3.28,3.83 -1.42,1.02 -3.11,1.8 -5.11,2.3 -2,0.52 -4.27,0.72 -6.79,0.61 -5.28,-0.21 -9.23,-1.43 -11.85,-3.69 -2.61,-2.26 -3.82,-5.46 -3.68,-9.61 0.09,-1.74 0.35,-3.42 0.81,-5.02 0.47,-1.6 1.1,-3.11 1.89,-4.56 l -5.25,-0.2 c -1.49,3.22 -2.3,6.62 -2.44,10.22 -0.24,5.77 1.33,10.27 4.67,13.52 3.31,3.23 8.36,4.97 15.12,5.26 3.28,0.11 6.27,-0.21 8.94,-0.96 2.71,-0.76 5,-1.89 6.88,-3.4 1.92,-1.51 3.43,-3.36 4.5,-5.57 1.11,-2.24 1.72,-4.73 1.8,-7.52"
         fill="#032b91"
         fill-rule="evenodd"
         id="path40" /><path
         transform="matrix(0.1,0,0,-0.1,0,792)"
         d="m 3529.96,6368.59 -1.02,-24.5 -4.7,0.2 0.38,9.44 -31.44,1.31 -0.41,-9.44 -4.76,0.2 1.02,24.47 4.76,-0.2 -0.38,-9.41 31.44,-1.3 0.4,9.41"
         fill="#032b91"
         fill-rule="evenodd"
         id="path41" /><path
         transform="matrix(0.1,0,0,-0.1,0,792)"
         d="m 3528.19,6333.5 -3.66,-29.67 -4.7,0.58 1.45,12.02 -35.91,4.41 0.7,5.6 35.9,-4.41 1.48,12.04"
         fill="#032b91"
         fill-rule="evenodd"
         id="path42" /><path
         transform="matrix(0.1,0,0,-0.1,0,792)"
         d="m 3523.8,6298.61 -1.36,-6.59 -16.29,-4.97 -6.5,-1.74 4.79,-3.8 13.56,-11.18 -1.28,-6.27 -22.81,19.8 -14.32,2.96 1.14,5.51 14.45,-2.96"
         fill="#032b91"
         fill-rule="evenodd"
         id="path43" /></g><g
       clip-path="url(#clip_3)"
       id="g95"
       style="display:inline"><path
         transform="matrix(0.1,0,0,-0.1,0,792)"
         d="m 2667.16,6211.52 5.76,-11.87 -23.48,-11.37 c -2.1,-1.02 -3.46,-2.4 -4.08,-4.14 -0.61,-1.73 -0.42,-3.63 0.58,-5.7 0.99,-2.05 2.36,-3.37 4.08,-3.97 1.73,-0.6 3.66,-0.38 5.79,0.65 l 23.48,11.38 5.76,-11.86 -22.94,-11.12 c -2.27,-1.11 -4.59,-1.79 -6.95,-2.06 -2.37,-0.27 -4.67,-0.01 -6.92,0.76 -2.25,0.78 -4.08,1.86 -5.5,3.23 -1.98,1.89 -3.75,4.46 -5.32,7.69 -0.91,1.88 -1.77,3.99 -2.58,6.33 -0.81,2.34 -1.19,4.44 -1.13,6.31 0.06,1.86 0.5,3.76 1.34,5.69 0.84,1.93 1.9,3.49 3.21,4.68 2.09,1.93 4.08,3.35 5.97,4.25"
         fill="#032b91"
         fill-rule="evenodd"
         id="path44" /><path
         transform="matrix(0.1,0,0,-0.1,0,792)"
         d="m 2689.07,6167 6.63,-10.4 -11.31,-26.31 19.97,12.72 6.69,-10.51 -36.08,-22.98 -6.7,10.5 11.21,26.14 -19.81,-12.62 -6.68,10.48"
         fill="#032b91"
         fill-rule="evenodd"
         id="path45" /><path
         transform="matrix(0.1,0,0,-0.1,0,792)"
         d="m 2717.15,6124.57 8.06,-10.5 -33.92,-26.06 -8.07,10.51 z"
         fill="#032b91"
         fill-rule="evenodd"
         id="path46" /><path
         transform="matrix(0.1,0,0,-0.1,0,792)"
         d="m 2728.45,6108.89 9.31,-10.21 -16.26,-27.86 29.15,13.72 9.04,-9.92 -42.31,-17.08 -9.66,10.59"
         fill="#032b91"
         fill-rule="evenodd"
         id="path47" /><path
         transform="matrix(0.1,0,0,-0.1,0,792)"
         d="m 2762.91,6071.64 26.5,-23.51 -6.07,-6.84 -16.59,14.73 -4.5,-5.09 15.38,-13.66 -5.79,-6.52 -15.39,13.65 -5.59,-6.31 17.07,-15.14 -6.43,-7.25 -26.98,23.94"
         fill="#032b91"
         fill-rule="evenodd"
         id="path48" /><path
         transform="matrix(0.1,0,0,-0.1,0,792)"
         d="m 2801.37,6028.2 -5.05,-7.08 4.53,-3.24 c 0.49,-0.35 1.56,-0.87 3.19,-1.56 0.81,-0.37 1.66,-0.42 2.53,-0.16 0.87,0.27 1.57,0.78 2.11,1.54 0.8,1.12 1.07,2.24 0.78,3.35 -0.28,1.11 -1.4,2.36 -3.37,3.77 z m -5.79,14.74 17.93,-12.8 c 3.33,-2.38 5.67,-4.48 7.01,-6.3 1.36,-1.83 2.02,-3.89 1.99,-6.21 -0.02,-2.31 -0.83,-4.58 -2.41,-6.79 -1.38,-1.93 -2.98,-3.3 -4.81,-4.12 -1.82,-0.81 -3.76,-1.14 -5.83,-0.98 -1.31,0.1 -2.9,0.54 -4.76,1.32 0.98,-1.34 1.6,-2.44 1.89,-3.29 0.19,-0.56 0.32,-1.58 0.41,-3.05 0.08,-1.47 0.07,-2.55 -0.04,-3.24 l -2,-13.81 -12.15,8.68 1.85,14.75 c 0.25,1.9 0.24,3.25 -0.03,4.07 -0.4,1.09 -1.08,1.99 -2.06,2.69 l -0.95,0.68 -10.1,-14.13 -10.8,7.72"
         fill="#032b91"
         fill-rule="evenodd"
         id="path49" /><path
         transform="matrix(0.1,0,0,-0.1,0,792)"
         d="m 2849.14,6008.29 c 4.76,-2.69 7.89,-5.63 9.38,-8.81 1.5,-3.19 1.39,-6.84 -0.32,-10.97 l -11.2,5.5 c 0.66,1.84 0.74,3.4 0.25,4.69 -0.49,1.28 -1.55,2.39 -3.18,3.3 -1.33,0.76 -2.5,1.05 -3.5,0.86 -1,-0.18 -1.73,-0.68 -2.18,-1.49 -0.34,-0.59 -0.37,-1.28 -0.07,-2.08 0.26,-0.79 1.29,-1.98 3.08,-3.55 4.42,-3.93 7.4,-7.07 8.94,-9.41 1.55,-2.34 2.36,-4.61 2.42,-6.81 0.06,-2.2 -0.49,-4.32 -1.64,-6.36 -1.35,-2.38 -3.25,-4.21 -5.72,-5.48 -2.45,-1.26 -5.17,-1.75 -8.13,-1.45 -2.95,0.31 -6.24,1.47 -9.84,3.52 -6.34,3.58 -10.03,7.28 -11.09,11.1 -1.06,3.82 -0.68,7.7 1.12,11.64 l 11.34,-5.51 c -0.77,-1.91 -1.06,-3.54 -0.85,-4.89 0.32,-2.17 1.59,-3.88 3.79,-5.13 1.65,-0.93 3.13,-1.26 4.46,-1 1.32,0.27 2.27,0.92 2.84,1.93 0.55,0.97 0.62,2.07 0.2,3.31 -0.41,1.24 -1.97,3.07 -4.67,5.5 -4.4,3.98 -7.15,7.53 -8.23,10.62 -1.11,3.11 -0.84,6.12 0.82,9.03 1.08,1.91 2.65,3.41 4.73,4.48 2.07,1.08 4.49,1.47 7.27,1.18 2.78,-0.28 6.11,-1.53 9.98,-3.72"
         fill="#032b91"
         fill-rule="evenodd"
         id="path50" /><path
         transform="matrix(0.1,0,0,-0.1,0,792)"
         d="m 2872.75,5994.88 12,-5.59 -18.04,-38.79 -12.01,5.59 z"
         fill="#032b91"
         fill-rule="evenodd"
         id="path51" /><path
         transform="matrix(0.1,0,0,-0.1,0,792)"
         d="m 2891.34,5985.8 37.65,-14 -3.66,-9.91 -12.65,4.7 -11.21,-30.2 -12.39,4.61 11.2,30.2 -12.62,4.7"
         fill="#032b91"
         fill-rule="evenodd"
         id="path52" /><path
         transform="matrix(0.1,0,0,-0.1,0,792)"
         d="m 2930.64,5970.91 14.23,-3.64 4.76,-16.13 11.93,11.84 14.17,-3.63 -22.3,-19.95 -4.44,-17.36 -12.83,3.3 4.44,17.35"
         fill="#032b91"
         fill-rule="evenodd"
         id="path53" /><path
         transform="matrix(0.1,0,0,-0.1,0,792)"
         d="m 3020.84,5943.88 c -2.64,0.23 -4.88,-0.52 -6.65,-2.25 -1.77,-1.75 -2.85,-4.79 -3.23,-9.13 -0.37,-4.3 0.15,-7.46 1.57,-9.48 1.45,-2.02 3.54,-3.15 6.3,-3.39 2.82,-0.25 5.08,0.48 6.8,2.18 1.71,1.71 2.78,4.94 3.19,9.71 0.38,4.01 -0.18,7.02 -1.66,9.01 -1.45,1.99 -3.57,3.11 -6.32,3.35 z m 0.89,9.97 c 7.12,-0.62 12.4,-3.01 15.91,-7.15 3.49,-4.15 4.94,-9.65 4.36,-16.51 -0.44,-4.98 -1.66,-8.99 -3.6,-12.03 -1.95,-3.04 -4.59,-5.31 -7.93,-6.8 -3.31,-1.5 -7.34,-2.04 -12.07,-1.63 -4.82,0.43 -8.71,1.54 -11.73,3.35 -3.02,1.81 -5.37,4.45 -7.03,7.94 -1.68,3.48 -2.29,7.72 -1.85,12.7 0.6,6.96 3.05,12.2 7.25,15.74 4.21,3.53 9.79,5 16.69,4.39"
         fill="#032b91"
         fill-rule="evenodd"
         id="path54" /><path
         transform="matrix(0.1,0,0,-0.1,0,792)"
         d="m 3051.11,5951.09 32.66,0.6 0.17,-9.19 -19.39,-0.36 0.12,-7.47 16.57,0.31 0.18,-8.64 -16.58,-0.3 0.32,-17.48 -13.29,-0.24"
         fill="#032b91"
         fill-rule="evenodd"
         id="path55" /><path
         transform="matrix(0.1,0,0,-0.1,0,792)"
         d="m 3109.98,5953.65 39.62,6.75 1.78,-10.41 -13.3,-2.27 5.43,-31.76 -13.04,-2.22 -5.42,31.76 -13.3,-2.26"
         fill="#032b91"
         fill-rule="evenodd"
         id="path56" /><path
         transform="matrix(0.1,0,0,-0.1,0,792)"
         d="m 3155.64,5961.71 34.14,9.48 2.43,-8.8 -21.36,-5.93 1.83,-6.55 19.83,5.5 2.32,-8.41 -19.83,-5.5 2.27,-8.13 22,6.11 2.59,-9.34 -34.75,-9.65"
         fill="#032b91"
         fill-rule="evenodd"
         id="path57" /><path
         transform="matrix(0.1,0,0,-0.1,0,792)"
         d="m 3215.79,5981.54 c 4.99,1.98 9.34,2.52 13,1.62 3.69,-0.89 7.03,-3.17 10.07,-6.82 l -9.9,-6.69 c -0.83,1.06 -1.59,1.79 -2.23,2.19 -1.07,0.67 -2.18,1.06 -3.39,1.18 -1.2,0.11 -2.41,-0.08 -3.63,-0.56 -2.79,-1.1 -4.48,-3.06 -5.08,-5.89 -0.47,-2.11 0,-4.94 1.39,-8.5 1.74,-4.41 3.6,-7.17 5.6,-8.28 1.97,-1.11 4.18,-1.18 6.59,-0.23 2.38,0.93 3.89,2.29 4.56,4.09 0.69,1.79 0.81,4.05 0.35,6.78 l 12.07,0.99 c 0.47,-3.31 0.32,-6.28 -0.43,-8.92 -0.76,-2.64 -2.09,-4.93 -3.98,-6.87 -1.92,-1.94 -4.64,-3.61 -8.21,-5.02 -4.33,-1.71 -8.11,-2.47 -11.36,-2.29 -3.22,0.17 -6.47,1.45 -9.69,3.84 -3.25,2.38 -5.84,6.04 -7.78,10.97 -2.61,6.58 -2.85,12.34 -0.72,17.25 2.09,4.92 6.35,8.64 12.77,11.16"
         fill="#032b91"
         fill-rule="evenodd"
         id="path58" /><path
         transform="matrix(0.1,0,0,-0.1,0,792)"
         d="m 3240.69,5990.8 11.7,6.2 7,-13.23 12.77,6.77 -7.03,13.23 11.73,6.22 20.06,-37.79 -11.73,-6.22 -8.1,15.29 -12.77,-6.78 8.1,-15.28 -11.67,-6.2"
         fill="#032b91"
         fill-rule="evenodd"
         id="path59" /><path
         transform="matrix(0.1,0,0,-0.1,0,792)"
         d="m 3284.35,6014.3 10.16,7.01 26.7,-10.33 -13.43,19.48 10.24,7.08 24.3,-35.21 -10.25,-7.08 -26.53,10.23 13.33,-19.33 -10.22,-7.06"
         fill="#032b91"
         fill-rule="evenodd"
         id="path60" /><path
         transform="matrix(0.1,0,0,-0.1,0,792)"
         d="m 3346.32,6049.1 c -2,-1.75 -2.98,-3.88 -2.93,-6.36 0.03,-2.48 1.49,-5.36 4.36,-8.64 2.84,-3.24 5.48,-5.05 7.92,-5.41 2.47,-0.36 4.74,0.37 6.79,2.19 2.15,1.88 3.2,4.02 3.14,6.44 -0.06,2.41 -1.65,5.42 -4.79,9.02 -2.67,3.03 -5.22,4.7 -7.66,5.03 -2.44,0.32 -4.7,-0.43 -6.83,-2.27 z m -6.55,7.55 c 5.34,4.69 10.74,6.87 16.14,6.54 5.42,-0.33 10.39,-3.09 14.95,-8.27 3.28,-3.75 5.37,-7.39 6.21,-10.91 0.84,-3.51 0.66,-6.99 -0.55,-10.42 -1.22,-3.44 -3.63,-6.72 -7.2,-9.85 -3.63,-3.19 -7.12,-5.24 -10.51,-6.17 -3.4,-0.93 -6.94,-0.79 -10.6,0.41 -3.66,1.21 -7.17,3.69 -10.45,7.45 -4.61,5.25 -6.73,10.62 -6.38,16.11 0.37,5.49 3.16,10.53 8.39,15.11"
         fill="#032b91"
         fill-rule="evenodd"
         id="path61" /><path
         transform="matrix(0.1,0,0,-0.1,0,792)"
         d="m 3362.03,6075.97 8.97,9.7 23.69,-21.9 13.99,15.15 7.75,-7.16 -22.99,-24.84"
         fill="#032b91"
         fill-rule="evenodd"
         id="path62" /><path
         transform="matrix(0.1,0,0,-0.1,0,792)"
         d="m 3408.18,6115.39 c -1.59,-2.13 -2.11,-4.41 -1.56,-6.83 0.55,-2.43 2.55,-4.94 6.04,-7.55 3.45,-2.59 6.41,-3.81 8.91,-3.65 2.47,0.15 4.52,1.34 6.18,3.55 1.71,2.27 2.27,4.59 1.74,6.94 -0.55,2.35 -2.76,4.96 -6.59,7.83 -3.22,2.41 -6.06,3.52 -8.5,3.34 -2.47,-0.19 -4.53,-1.4 -6.22,-3.63 z m -7.98,6.02 c 4.27,5.7 9.09,8.95 14.46,9.75 5.37,0.79 10.8,-0.87 16.31,-5 4.01,-3 6.8,-6.13 8.33,-9.39 1.57,-3.27 2.09,-6.71 1.63,-10.32 -0.5,-3.61 -2.15,-7.32 -5,-11.12 -2.9,-3.86 -5.89,-6.6 -9.02,-8.21 -3.14,-1.61 -6.62,-2.21 -10.45,-1.78 -3.83,0.41 -7.75,2.12 -11.76,5.12 -5.6,4.18 -8.79,9 -9.58,14.44 -0.78,5.45 0.9,10.95 5.08,16.51"
         fill="#032b91"
         fill-rule="evenodd"
         id="path63" /><path
         transform="matrix(0.1,0,0,-0.1,0,792)"
         d="m 3428.1,6163.35 c 2.38,4.09 4.53,6.93 6.44,8.53 1.92,1.59 4.07,2.61 6.39,3.04 2.32,0.44 4.87,0.29 7.66,-0.42 l -4.44,-12.17 c -1.65,0.36 -3.17,0.21 -4.53,-0.45 -1.39,-0.65 -2.55,-1.82 -3.54,-3.5 -1.45,-2.51 -1.74,-5.01 -0.87,-7.51 0.9,-2.5 3.22,-4.85 6.97,-7.04 4,-2.32 7.31,-3.23 9.89,-2.72 2.59,0.51 4.68,2.11 6.25,4.8 0.72,1.27 1.24,2.61 1.56,3.98 0.29,1.37 0.44,3.07 0.41,5.09 l -3.49,2.02 -4.43,-7.65 -7.7,4.47 10.28,17.67 15.76,-9.17 c 0.35,-4.72 0.18,-8.62 -0.49,-11.7 -0.7,-3.08 -2.06,-6.41 -4.13,-9.97 -2.55,-4.39 -5.39,-7.54 -8.5,-9.44 -3.11,-1.89 -6.56,-2.74 -10.42,-2.55 -3.83,0.2 -7.67,1.41 -11.53,3.64 -4.03,2.35 -7.05,5.22 -9.05,8.62 -2.04,3.4 -2.88,7.16 -2.55,11.27 0.26,3.2 1.62,6.92 4.06,11.16"
         fill="#032b91"
         fill-rule="evenodd"
         id="path64" /><path
         transform="matrix(0.1,0,0,-0.1,0,792)"
         d="m 3440.84,6183.64 5.92,13.44 16.67,2.1 -9.73,13.7 5.86,13.39 16.08,-25.23 16.41,-7.22 -5.32,-12.12 -16.43,7.2"
         fill="#032b91"
         fill-rule="evenodd"
         id="path65" /><path
         transform="matrix(0.1,0,0,-0.1,0,792)"
         d="m 3045.16,6215.79 148.8,86.18 157.65,-91 -148.83,-86.2 z"
         fill="#ffffff"
         fill-rule="evenodd"
         id="path66" /><path
         transform="matrix(0.1,0,0,-0.1,0,792)"
         stroke-width="2.9028"
         stroke-linecap="butt"
         stroke-miterlimit="10"
         stroke-linejoin="miter"
         fill="none"
         stroke="#ffffff"
         d="m 3045.16,6215.79 148.8,86.18 157.65,-91 -148.83,-86.2 z"
         id="path67" /><path
         transform="matrix(0.1,0,0,-0.1,0,792)"
         d="m 3195.29,6475.85 -0.23,-171.99 157.62,-91 0.23,171.99 z"
         fill="#ffffff"
         fill-rule="evenodd"
         id="path68" /><path
         transform="matrix(0.1,0,0,-0.1,0,792)"
         stroke-width="2.9028"
         stroke-linecap="butt"
         stroke-miterlimit="10"
         stroke-linejoin="miter"
         fill="none"
         stroke="#ffffff"
         d="m 3195.29,6475.85 -0.23,-171.99 157.62,-91 0.23,171.99 z"
         id="path69" /><path
         transform="matrix(0.1,0,0,-0.1,0,792)"
         d="m 2924.7,6476.37 0.23,-171.96 -157.63,-91 -0.24,171.96 z"
         fill="#ffffff"
         fill-rule="evenodd"
         id="path70" /><path
         transform="matrix(0.1,0,0,-0.1,0,792)"
         stroke-width="2.9028"
         stroke-linecap="butt"
         stroke-miterlimit="10"
         stroke-linejoin="miter"
         fill="none"
         stroke="#ffffff"
         d="m 2924.7,6476.37 0.23,-171.96 -157.63,-91 -0.24,171.96 z"
         id="path71" /><path
         transform="matrix(0.1,0,0,-0.1,0,792)"
         d="m 3074.83,6216.31 -148.8,86.21 -157.64,-91 148.81,-86.2 z"
         fill="#ffffff"
         fill-rule="evenodd"
         id="path72" /><path
         transform="matrix(0.1,0,0,-0.1,0,792)"
         stroke-width="2.9028"
         stroke-linecap="butt"
         stroke-miterlimit="10"
         stroke-linejoin="miter"
         fill="none"
         stroke="#ffffff"
         d="m 3074.83,6216.31 -148.8,86.21 -157.64,-91 148.81,-86.2 z"
         id="path73" /><path
         transform="matrix(0.1,0,0,-0.1,0,792)"
         d="m 3209.78,6450.59 -149.09,85.81 v 182.06 l 149.09,-85.8 z"
         fill="#ffffff"
         fill-rule="evenodd"
         id="path74" /><path
         transform="matrix(0.1,0,0,-0.1,0,792)"
         stroke-width="2.78669"
         stroke-linecap="butt"
         stroke-miterlimit="10"
         stroke-linejoin="miter"
         fill="none"
         stroke="#ffffff"
         d="m 3209.78,6450.59 -149.09,85.81 v 182.06 l 149.09,-85.8 z"
         id="path75" /><path
         transform="matrix(0.1,0,0,-0.1,0,792)"
         d="m 2909.51,6450.59 149.09,85.81 v 182.06 l -149.09,-85.8 z"
         fill="#ffffff"
         fill-rule="evenodd"
         id="path76" /><path
         transform="matrix(0.1,0,0,-0.1,0,792)"
         stroke-width="2.78669"
         stroke-linecap="butt"
         stroke-miterlimit="10"
         stroke-linejoin="miter"
         fill="none"
         stroke="#ffffff"
         d="m 2909.51,6450.59 149.09,85.81 v 182.06 l -149.09,-85.8 z"
         id="path77" /><path
         transform="matrix(0.1,0,0,-0.1,0,792)"
         d="m 3200.02,6465.22 -139.33,80.18 v 162.27 l 139.33,-80.18 z"
         fill="#1488db"
         fill-rule="evenodd"
         id="path78" /><path
         transform="matrix(0.1,0,0,-0.1,0,792)"
         stroke-width="2.78669"
         stroke-linecap="butt"
         stroke-miterlimit="10"
         stroke-linejoin="miter"
         fill="none"
         stroke="#1488db"
         d="m 3200.02,6465.22 -139.33,80.18 v 162.27 l 139.33,-80.18 z"
         id="path79" /><path
         transform="matrix(0.1,0,0,-0.1,0,792)"
         d="m 2918.57,6465.22 139.33,80.18 v 162.27 l -139.33,-80.18 z"
         fill="#032b91"
         fill-rule="evenodd"
         id="path80" /><path
         transform="matrix(0.1,0,0,-0.1,0,792)"
         stroke-width="2.78669"
         stroke-linecap="butt"
         stroke-miterlimit="10"
         stroke-linejoin="miter"
         fill="none"
         stroke="#032b91"
         d="m 2918.57,6465.22 139.33,80.18 v 162.27 l -139.33,-80.18 z"
         id="path81" /><path
         transform="matrix(0.1,0,0,-0.1,0,792)"
         d="m 3062.32,6216.48 139.22,80.65 140.29,-81.02 -139.22,-80.65 z"
         fill="#1488db"
         fill-rule="evenodd"
         id="path82" /><path
         transform="matrix(0.1,0,0,-0.1,0,792)"
         stroke-width="2.9028"
         stroke-linecap="butt"
         stroke-miterlimit="10"
         stroke-linejoin="miter"
         fill="none"
         stroke="#1488db"
         d="m 3062.32,6216.48 139.22,80.65 140.29,-81.02 -139.22,-80.65 z"
         id="path83" /><path
         transform="matrix(0.1,0,0,-0.1,0,792)"
         d="m 3203.1,6460.35 -0.23,-160.88 140.32,-81.01 0.23,160.87 z"
         fill="#032b91"
         fill-rule="evenodd"
         id="path84" /><path
         transform="matrix(0.1,0,0,-0.1,0,792)"
         stroke-width="2.9028"
         stroke-linecap="butt"
         stroke-miterlimit="10"
         stroke-linejoin="miter"
         fill="none"
         stroke="#032b91"
         d="m 3203.1,6460.35 -0.23,-160.88 140.32,-81.01 0.23,160.87 z"
         id="path85" /><path
         transform="matrix(0.1,0,0,-0.1,0,792)"
         d="m 2916.07,6460.35 0.21,-160.88 -140.3,-81.01 -0.23,160.87 z"
         fill="#1488db"
         fill-rule="evenodd"
         id="path86" /><path
         transform="matrix(0.1,0,0,-0.1,0,792)"
         stroke-width="2.9028"
         stroke-linecap="butt"
         stroke-miterlimit="10"
         stroke-linejoin="miter"
         fill="none"
         stroke="#1488db"
         d="m 2916.07,6460.35 0.21,-160.88 -140.3,-81.01 -0.23,160.87 z"
         id="path87" /><path
         transform="matrix(0.1,0,0,-0.1,0,792)"
         d="m 3056.86,6216.48 -139.22,80.65 -140.3,-81.02 139.2,-80.65 z"
         fill="#032b91"
         fill-rule="evenodd"
         id="path88" /><path
         transform="matrix(0.1,0,0,-0.1,0,792)"
         stroke-width="2.9028"
         stroke-linecap="butt"
         stroke-miterlimit="10"
         stroke-linejoin="miter"
         fill="none"
         stroke="#032b91"
         d="m 3056.86,6216.48 -139.22,80.65 -140.3,-81.02 139.2,-80.65 z"
         id="path89" /><path
         transform="matrix(0.1,0,0,-0.1,0,792)"
         d="m 3200.02,6300.46 -139.33,80.18 v 161.91 l 139.33,-80.17 z"
         fill="#ffffff"
         fill-rule="evenodd"
         id="path90" /><path
         transform="matrix(0.1,0,0,-0.1,0,792)"
         stroke-width="2.78669"
         stroke-linecap="butt"
         stroke-miterlimit="10"
         stroke-linejoin="miter"
         fill="none"
         stroke="#ffffff"
         d="m 3200.02,6300.46 -139.33,80.18 v 161.91 l 139.33,-80.17 z"
         id="path91" /><path
         transform="matrix(0.1,0,0,-0.1,0,792)"
         d="m 2918.57,6300.46 139.33,80.18 v 161.91 l -139.33,-80.17 z"
         fill="#ffffff"
         fill-rule="evenodd"
         id="path92" /><path
         transform="matrix(0.1,0,0,-0.1,0,792)"
         stroke-width="2.78669"
         stroke-linecap="butt"
         stroke-miterlimit="10"
         stroke-linejoin="miter"
         fill="none"
         stroke="#ffffff"
         d="m 2918.57,6300.46 139.33,80.18 v 161.91 l -139.33,-80.17 z"
         id="path93" /><path
         transform="matrix(0.1,0,0,-0.1,0,792)"
         d="m 3199.04,6298.57 -139.22,-80.64 -140.32,81.02 139.21,80.64 z"
         fill="#ffffff"
         fill-rule="evenodd"
         id="path94" /><path
         transform="matrix(0.1,0,0,-0.1,0,792)"
         stroke-width="2.9028"
         stroke-linecap="butt"
         stroke-miterlimit="10"
         stroke-linejoin="miter"
         fill="none"
         stroke="#ffffff"
         d="m 3199.04,6298.57 -139.22,-80.64 -140.32,81.02 139.21,80.64 z"
         id="path95" /></g><g
       id="g1"><path
         style="font-size:5.42959px;font-family:Arial;-inkscape-font-specification:'Arial, @wght=700';font-variation-settings:'wght' 700;fill:#1488db;stroke-width:8.14439;stroke-linejoin:round"
         d="m 292.42256,164.65221 v -3.22913 h -1.15326 v -0.65748 h 3.08861 v 0.65748 h -1.15061 v 3.22913 z m 2.44172,0 v -3.88661 h 1.25931 q 0.71581,0 0.93321,0.0583 0.33405,0.0875 0.55939,0.38177 0.22535,0.29163 0.22535,0.75558 0,0.35791 -0.1299,0.60182 -0.12991,0.2439 -0.3314,0.38442 -0.19884,0.13786 -0.40563,0.18293 -0.28102,0.0557 -0.81391,0.0557 h -0.51167 v 1.4661 z m 0.78475,-3.22913 v 1.10289 h 0.42949 q 0.46395,0 0.62037,-0.061 0.15642,-0.061 0.24391,-0.19088 0.0901,-0.12991 0.0901,-0.30223 0,-0.2121 -0.12461,-0.34996 -0.1246,-0.13786 -0.31549,-0.17232 -0.14051,-0.0265 -0.56469,-0.0265 z m 2.13154,3.22913 v -0.74498 h 0.74497 v 0.74498 z m 1.51646,0 v -3.88661 h 0.78475 v 1.52972 h 1.53768 v -1.52972 h 0.78474 v 3.88661 h -0.78474 v -1.6994 h -1.53768 v 1.6994 z m 6.40522,-1.42898 0.76089,0.24125 q -0.17498,0.63628 -0.58326,0.94647 -0.40563,0.30754 -1.0313,0.30754 -0.77414,0 -1.27256,-0.52759 -0.49842,-0.53023 -0.49842,-1.44753 0,-0.97033 0.50107,-1.50587 0.50107,-0.53818 1.31763,-0.53818 0.71316,0 1.15856,0.42153 0.26512,0.24921 0.39767,0.71582 l -0.77679,0.18558 q -0.0689,-0.30223 -0.28897,-0.47721 -0.2174,-0.17498 -0.53024,-0.17498 -0.43214,0 -0.70256,0.31019 -0.26777,0.31018 -0.26777,1.00479 0,0.73702 0.26512,1.04986 0.26512,0.31284 0.6893,0.31284 0.31284,0 0.53819,-0.19884 0.22535,-0.19883 0.32344,-0.62567 z m 1.42368,1.42898 v -3.88661 h 1.17447 l 0.70521,2.65116 0.69725,-2.65116 h 1.17712 v 3.88661 h -0.72907 v -3.05945 l -0.77149,3.05945 h -0.75558 l -0.76884,-3.05945 v 3.05945 z"
         id="text112"
         transform="scale(1.018048,0.98227197)"
         aria-label="TP.HCM" /><path
         style="font-size:14.6667px;font-family:Arial;-inkscape-font-specification:'Arial, Normal';fill:#032b90;stroke-width:8;stroke-linejoin:round"
         d="m 296.53858,145.48628 h 4.19662 q 1.2461,0 1.85482,0.10742 0.61589,0.10026 1.09571,0.42969 0.48698,0.32943 0.80925,0.88086 0.32226,0.54427 0.32226,1.22461 0,0.73763 -0.40104,1.35352 -0.39388,0.61589 -1.07422,0.92383 0.95964,0.2793 1.47526,0.95248 0.51563,0.67318 0.51563,1.58268 0,0.71615 -0.33659,1.39649 -0.32943,0.67318 -0.90951,1.08138 -0.57292,0.40105 -1.41797,0.49415 -0.52995,0.0573 -2.55665,0.0716 h -3.57357 z m 2.11979,1.7474 v 2.42774 h 1.38933 q 1.23893,0 1.53972,-0.0358 0.54427,-0.0644 0.85221,-0.3724 0.31511,-0.3151 0.31511,-0.82357 0,-0.48698 -0.27214,-0.78776 -0.26497,-0.30794 -0.79492,-0.37239 -0.31511,-0.0358 -1.81186,-0.0358 z m 0,4.17514 v 2.8073 h 1.96225 q 1.14583,0 1.45378,-0.0645 0.47265,-0.0859 0.76627,-0.41536 0.30079,-0.33659 0.30079,-0.89519 0,-0.47265 -0.22917,-0.80208 -0.22917,-0.32943 -0.66602,-0.47982 -0.42969,-0.15039 -1.8763,-0.15039 z m 8.49351,4.57618 v -10.49872 h 2.1198 v 4.66212 l 4.28256,-4.66212 h 2.85027 l -3.95314,4.0892 4.16798,6.40952 h -2.74284 l -2.88608,-4.92709 -1.71875,1.75456 v 3.17253 z"
         id="text111"
         aria-label="BK" /></g><g
       id="g2"
       style="display:none"><text
         xml:space="preserve"
         style="font-style:normal;font-variant:normal;font-weight:normal;font-stretch:normal;font-size:14.9314px;font-family:Sans;-inkscape-font-specification:'Sans, @wght=700';font-variant-ligatures:normal;font-variant-caps:normal;font-variant-numeric:normal;font-variant-east-asian:normal;font-variation-settings:'wght' 700;text-align:start;writing-mode:lr-tb;direction:ltr;text-anchor:start;fill:#1488db;fill-opacity:1;stroke:none;stroke-width:8.14439;stroke-linejoin:round"
         x="291.15265"
         y="164.65221"
         id="text1"
         transform="scale(1.018048,0.98227197)"><tspan
           sodipodi:role="line"
           id="tspan1"
           x="291.15265"
           y="164.65221"
           style="font-style:normal;font-variant:normal;font-weight:normal;font-stretch:normal;font-size:5.42959px;font-family:Arial;-inkscape-font-specification:'Arial, @wght=700';font-variant-ligatures:normal;font-variant-caps:normal;font-variant-numeric:normal;font-variant-east-asian:normal;font-variation-settings:'wght' 700;fill:#1488db;fill-opacity:1;stroke-width:8.14439">TP.HCM</tspan></text><text
         xml:space="preserve"
         style="font-size:96px;font-family:sans-serif;-inkscape-font-specification:'sans-serif, Normal';text-align:start;writing-mode:lr-tb;direction:ltr;text-anchor:start;fill:#032b90;fill-opacity:1;stroke:#000000;stroke-width:8;stroke-linejoin:round"
         x="295.46436"
         y="155.985"
         id="text2"><tspan
           sodipodi:role="line"
           id="tspan2"
           x="295.46436"
           y="155.985"
           style="font-style:normal;font-variant:normal;font-weight:normal;font-stretch:normal;font-size:14.6667px;font-family:Arial;-inkscape-font-specification:'Arial, Normal';font-variant-ligatures:normal;font-variant-caps:normal;font-variant-numeric:normal;font-variant-east-asian:normal;fill:#032b90;fill-opacity:1;stroke:none">BK</tspan></text></g></g></svg>
