<svg width="563" height="579" viewBox="0 0 563 579" fill="none" xmlns="http://www.w3.org/2000/svg">
<path d="M433.698 324.5C380.92 314.031 303.334 305.885 284.565 330C265.796 354.115 227.944 406.048 261.198 412.5C292.475 418.569 369.37 381.942 401.198 380.5C425.52 379.398 454.948 379.5 475.198 393C497.698 408 498.754 434.853 517.198 427.5C535.642 420.147 536.198 383 503.698 356.726C471.198 330.451 472.41 332.179 433.698 324.5Z" fill="#CCCCCC"/>
<rect x="424.781" y="360" width="159.844" height="159.844" rx="5" transform="rotate(30.4814 424.781 360)" fill="#6750A4"/>
<rect x="431.078" y="384.315" width="53.2814" height="53.2814" rx="3" transform="rotate(30.4814 431.078 384.315)" fill="white"/>
<rect x="492.301" y="420.352" width="53.2814" height="53.2814" rx="3" transform="rotate(30.4814 492.301 420.352)" fill="white"/>
<rect x="496.079" y="434.941" width="31.9689" height="31.9689" rx="1" transform="rotate(30.4814 496.079 434.941)" fill="#6750A4"/>
<rect x="498.598" y="444.667" width="17.7605" height="17.7605" rx="1" transform="rotate(30.4814 498.598 444.667)" fill="white"/>
<rect x="499.857" y="449.53" width="10.6563" height="10.6563" transform="rotate(30.4814 499.857 449.53)" fill="#6750A4"/>
<rect x="395.041" y="445.539" width="53.2814" height="53.2814" rx="3" transform="rotate(30.4814 395.041 445.539)" fill="white"/>
<rect x="398.819" y="460.128" width="31.9689" height="31.9689" rx="1" transform="rotate(30.4814 398.819 460.128)" fill="#6750A4"/>
<rect x="401.337" y="469.854" width="17.7605" height="17.7605" rx="1" transform="rotate(30.4814 401.337 469.854)" fill="white"/>
<rect x="402.597" y="474.717" width="10.6563" height="10.6563" transform="rotate(30.4814 402.597 474.717)" fill="#6750A4"/>
<rect x="477.15" y="502.112" width="17.7605" height="17.7605" transform="rotate(30.4814 477.15 502.112)" fill="#D9D9D9"/>
<rect x="447.972" y="509.668" width="17.7605" height="17.7605" transform="rotate(30.4814 447.972 509.668)" fill="#D9D9D9"/>
<rect x="456.264" y="481.575" width="53.2814" height="53.2814" rx="3" transform="rotate(30.4814 456.264 481.575)" fill="white"/>
<rect x="477.15" y="502.112" width="17.7605" height="17.7605" rx="1" transform="rotate(30.4814 477.15 502.112)" fill="#6750A4"/>
<rect x="447.972" y="509.668" width="17.7605" height="17.7605" rx="1" transform="rotate(30.4814 447.972 509.668)" fill="#6750A4"/>
<rect x="451.963" y="404.852" width="17.7605" height="17.7605" rx="1" transform="rotate(30.4814 451.963 404.852)" fill="#6750A4"/>
<rect x="422.785" y="412.408" width="17.7605" height="17.7605" rx="1" transform="rotate(30.4814 422.785 412.408)" fill="#6750A4"/>
<path d="M345.197 578.5H151.197H93.698C93.698 578.5 34.1985 544.5 14.6985 502.5C-6.89092 456 -2.80171 407.5 14.6985 366C32.1987 324.5 71.6978 279 107.698 302.5C143.698 326 90.198 350.5 69.698 398.5C49.198 446.5 61.6765 489.004 69.698 502.5C101.198 555.5 151.197 578.5 151.197 578.5C151.197 578.5 129.528 478.545 136.698 415.001C151.197 286.5 285.698 260 275.198 356C264.698 452 312.698 465.5 345.197 578.5Z" fill="#D9D9D9"/>
<ellipse cx="326.193" cy="238.205" rx="184.382" ry="118.005" transform="rotate(8.30599 326.193 238.205)" fill="#D9D9D9"/>
<path d="M285.077 16.1316L171.988 165.801L311.474 133.13L285.077 16.1316Z" fill="#D9D9D9"/>
<path d="M519.087 75.5068L351.698 133.13L460.698 185.5L519.087 75.5068Z" fill="#D9D9D9"/>
<path d="M261.199 406C253.699 389 271.364 351.718 241.199 341C211.034 330.282 176.699 424.5 189.198 450.5C201.698 476.5 211.19 482.5 247.198 482.5C261.198 482.5 288.131 467.392 305.198 495C320.198 519.263 329.237 524.368 352.698 517C376.16 509.631 343.266 469.871 323.699 444C297.202 408.967 278.933 446.198 261.199 406Z" fill="#CCCCCC"/>
<path d="M330.959 284.914C337.668 273.842 342.956 262.481 345.743 253.157C348.529 243.832 348.603 237.248 345.948 234.752C343.294 232.256 338.112 234.037 331.464 239.73C324.815 245.423 317.202 254.598 310.182 265.378C303.162 276.157 297.266 287.727 293.7 297.719C290.133 307.712 289.167 315.372 290.998 319.132C292.829 322.892 297.319 322.468 303.549 317.947C309.78 313.426 317.28 305.149 324.514 294.81L318.99 277.662L330.959 284.914Z" fill="#BBBBBB" fill-opacity="0.733333"/>
<path d="M440.229 293.891C446.858 282.95 452.191 271.789 455.138 262.692C458.084 253.594 458.421 247.249 456.079 244.952C453.737 242.656 448.894 244.584 442.54 250.34C436.186 256.096 428.801 265.246 421.897 275.918C414.993 286.59 409.092 297.977 405.4 307.749C401.709 317.522 400.506 324.94 402.038 328.488C403.57 332.036 407.722 331.444 413.643 326.834C419.564 322.224 426.807 313.944 433.891 303.688L429.505 287.393L440.229 293.891Z" fill="#BBBBBB" fill-opacity="0.733333"/>
</svg>
