<svg width="1070" height="1021" viewBox="0 0 1070 1021" fill="none" xmlns="http://www.w3.org/2000/svg">
<rect x="464" width="606" height="606" fill="url(#paint0_radial_137_1582)"/>
<rect x="607" y="251.697" width="233.02" height="233.02" rx="5" transform="rotate(-20 607 251.697)" fill="#6750A4"/>
<rect x="640.185" y="267.172" width="77.6732" height="77.6732" rx="3" transform="rotate(-20 640.185 267.172)" fill="white"/>
<rect x="737.503" y="231.751" width="77.6732" height="77.6732" rx="3" transform="rotate(-20 737.503 231.751)" fill="white"/>
<rect x="757.415" y="241.035" width="46.6039" height="46.6039" rx="1" transform="rotate(-20 757.415 241.035)" fill="#6750A4"/>
<rect x="770.688" y="247.225" width="25.8911" height="25.8911" rx="1" transform="rotate(-20 770.688 247.225)" fill="white"/>
<rect x="777.325" y="250.32" width="15.5346" height="15.5346" transform="rotate(-20 777.325 250.32)" fill="#6750A4"/>
<rect x="675.606" y="364.49" width="77.6732" height="77.6732" rx="3" transform="rotate(-20 675.606 364.49)" fill="white"/>
<rect x="695.517" y="373.775" width="46.6039" height="46.6039" rx="1" transform="rotate(-20 695.517 373.775)" fill="#6750A4"/>
<rect x="708.791" y="379.965" width="25.8911" height="25.8911" rx="1" transform="rotate(-20 708.791 379.965)" fill="white"/>
<rect x="715.428" y="383.06" width="15.5346" height="15.5346" transform="rotate(-20 715.428 383.06)" fill="#6750A4"/>
<rect x="815.394" y="324.633" width="25.8911" height="25.8911" transform="rotate(-20 815.394 324.633)" fill="#D9D9D9"/>
<rect x="796.825" y="364.455" width="25.8911" height="25.8911" transform="rotate(-20 796.825 364.455)" fill="#D9D9D9"/>
<rect x="772.925" y="329.069" width="77.6732" height="77.6732" rx="3" transform="rotate(-20 772.925 329.069)" fill="white"/>
<rect x="815.394" y="324.633" width="25.8911" height="25.8911" rx="1" transform="rotate(-20 815.394 324.633)" fill="#6750A4"/>
<rect x="796.825" y="364.455" width="25.8911" height="25.8911" rx="1" transform="rotate(-20 796.825 364.455)" fill="#6750A4"/>
<rect x="682.655" y="262.735" width="25.8911" height="25.8911" rx="1" transform="rotate(-20 682.655 262.735)" fill="#6750A4"/>
<rect x="664.085" y="302.557" width="25.8911" height="25.8911" rx="1" transform="rotate(-20 664.085 302.557)" fill="#6750A4"/>
<path d="M196 1020.45C306.5 821.449 502.2 538.349 401 997.949L196 1020.45Z" fill="#D9D9D9"/>
<path d="M596.418 561.527C570.558 594.448 548.704 669.474 540.519 704.834C533.992 744.78 590.927 725.14 605.521 704.834L635 561.527C633.121 547.546 622.775 527.973 596.418 561.527Z" fill="#CCCCCC"/>
<ellipse cx="395" cy="661" rx="228" ry="123" transform="rotate(-25 395 661)" fill="#D9D9D9"/>
<path d="M211 453V697L326 585L211 453Z" fill="#D9D9D9"/>
<path d="M496.5 386L448.5 523L524.5 543L496.5 386Z" fill="#D9D9D9"/>
<path d="M517.388 576.423C455.067 617.65 386.069 742.033 359.36 799.071C328.756 864.115 437.261 853.608 481.22 799.071C525.178 744.535 568.58 586.93 568.58 576.423C568.58 565.916 595.289 524.888 517.388 576.423Z" fill="#CCCCCC"/>
<path d="M119.632 997.721C142.329 1008.51 180.632 1018.22 180.632 1018.22C180.632 1018.22 138.904 1022.09 112.632 1018.22C71.2717 1012.13 34.941 1014.39 13.132 978.721C2.50875 961.347 1.79867 943.387 0.132 928.221C-1.53467 913.054 13.132 844.221 13.132 844.221C13.132 844.221 34.132 841.054 35.632 858.721C37.132 876.387 29.174 917.9 47.632 947.721C65.6487 976.829 88.7152 983.023 119.632 997.721Z" fill="#D9D9D9"/>
<path d="M517.863 560.01C512.119 550.06 505.587 541.066 499.603 534.869C493.619 528.672 488.635 525.74 485.672 526.673C482.708 527.606 481.989 532.333 483.661 539.887C485.333 547.442 489.27 557.252 494.666 567.312C500.063 577.371 506.511 586.919 512.691 594.002C518.871 601.085 524.317 605.168 527.913 605.415C531.509 605.662 532.985 602.054 532.038 595.33C531.09 588.607 527.792 579.275 522.817 569.244L507.548 565.965L517.863 560.01Z" fill="#CCCCCC"/>
<path d="M422.053 612.78C415.23 603.144 407.529 594.676 400.525 589.108C393.522 583.541 387.747 581.295 384.38 582.831C381.013 584.366 380.31 589.567 382.414 597.369C384.519 605.17 389.271 614.983 395.7 624.8C402.129 634.616 409.747 643.694 416.997 650.177C424.247 656.659 430.58 660.056 434.701 659.671C438.822 659.287 440.418 655.151 439.164 648.11C437.91 641.068 433.9 631.654 427.955 621.792L410.403 621.03L422.053 612.78Z" fill="#CCCCCC"/>
<defs>
<radialGradient id="paint0_radial_137_1582" cx="0" cy="0" r="1" gradientUnits="userSpaceOnUse" gradientTransform="translate(767 303) rotate(90) scale(303)">
<stop stop-color="white"/>
<stop offset="1" stop-color="white" stop-opacity="0"/>
</radialGradient>
</defs>
</svg>
