<svg width="45" height="45" viewBox="0 0 45 45" fill="none" xmlns="http://www.w3.org/2000/svg">
<rect width="45" height="45" rx="5" fill="#6750A4"/>
<rect x="5" y="5" width="15" height="15" rx="3" fill="white"/>
<rect x="25" y="5" width="15" height="15" rx="3" fill="white"/>
<rect x="28" y="8" width="9" height="9" rx="1" fill="#6750A4"/>
<rect x="30" y="10" width="5" height="5" rx="1" fill="white"/>
<rect x="31" y="11" width="3" height="3" fill="#6750A4"/>
<rect x="5" y="25" width="15" height="15" rx="3" fill="white"/>
<rect x="8" y="28" width="9" height="9" rx="1" fill="#6750A4"/>
<rect x="10" y="30" width="5" height="5" rx="1" fill="white"/>
<rect x="11" y="31" width="3" height="3" fill="#6750A4"/>
<rect x="33" y="27" width="5" height="5" fill="#D9D9D9"/>
<rect x="27" y="33" width="5" height="5" fill="#D9D9D9"/>
<rect x="25" y="25" width="15" height="15" rx="3" fill="white"/>
<rect x="33" y="27" width="5" height="5" rx="1" fill="#6750A4"/>
<rect x="27" y="33" width="5" height="5" rx="1" fill="#6750A4"/>
<rect x="13" y="7" width="5" height="5" rx="1" fill="#6750A4"/>
<rect x="7" y="13" width="5" height="5" rx="1" fill="#6750A4"/>
</svg>
